<svg xmlns="http://www.w3.org/2000/svg" xmlns:xlink="http://www.w3.org/1999/xlink" width="489" height="471" version="1.1" viewBox="0 0 489 471"><title>Graph-3</title><g id="BitcoinComputer-Landingpage" fill="none" fill-rule="evenodd" stroke="none" stroke-width="1"><g id="Network–BlueAndOrange-ColorsSlightlyChanged" transform="translate(-1431.000000, -4553.000000)"><g id="PRICING" transform="translate(0.000000, 3767.500000)"><g id="Graph-3" transform="translate(1431.000000, 785.500000)"><polyline id="Path-8" stroke="#000F38" points="314 314.949 314 164.949 322 157 489 157"/><polyline id="Path-12" stroke="#000F38" points="314 314.949 164.88 314.949 157 306.658 157 86.5 148.88 78.5 79.426 78.509 79.426 189.009 87.86 197 115.735 197"/><path id="Fill-8" fill="#000F38" d="M160.5,133.5 C160.5,135.432921 158.933061,137 157,137 C155.067079,137 153.5,135.432921 153.5,133.5 C153.5,131.567079 155.067079,130 157,130 C158.933061,130 160.5,131.567079 160.5,133.5"/><polygon id="Fill-10" fill="#002A99" points="80.289 176 83.4 172.889 83.4 172.111 80.289 169 79.511 169 76.4 172.111 76.4 172.889 79.511 176" transform="translate(79.900000, 172.499945) scale(1, -1) translate(-79.900000, -172.499945)"/><g id="Gly-15" transform="translate(157.000000, 157.000000)"><polygon id="Fill-1" points="0 314 314 314 314 0 0 0"/><g id="Group-26" transform="translate(31.160104, 32.057390)"><path id="Fill-2" fill="#FFF" d="M125.6,251.2 C56.233632,251.2 0,194.966368 0,125.6 C0,56.233632 56.233632,0 125.6,0 C194.966368,0 251.2,56.233632 251.2,125.6 C251.2,194.966368 194.966368,251.2 125.6,251.2 Z"/><polygon id="Fill-4" fill="#0046FF" points="106.995 161.136 106.995 90.064 98.111 81.18 27.038 81.18 18.154 90.064 18.154 161.136 27.038 170.02 98.111 170.02"/><polygon id="Fill-6" fill="#0046FF" points="233.046 161.136 233.046 90.064 224.162 81.18 153.089 81.18 144.205 90.064 144.205 161.136 153.089 170.02 224.162 170.02"/><path id="Fill-8" fill="#000F38" d="M93.9844704,125.6 C93.9844704,142.946616 79.9222944,157.010048 62.5744224,157.010048 C45.2278064,157.010048 31.1643744,142.946616 31.1643744,125.6 C31.1643744,108.253384 45.2278064,94.189952 62.5744224,94.189952 C79.9222944,94.189952 93.9844704,108.253384 93.9844704,125.6"/><polygon id="Fill-10" fill="#000F38" points="193.067 165.578 228.603 130.042 228.603 121.158 193.067 85.622 184.184 85.621 148.648 121.158 148.648 130.042 184.184 165.578"/><path id="Fill-25" fill="#FFF" d="M73.7179056,125.6 C73.7179056,131.7544 68.7290736,136.743232 62.5746736,136.743232 C56.4202736,136.743232 51.4314416,131.7544 51.4314416,125.6 C51.4314416,119.4456 56.4202736,114.456768 62.5746736,114.456768 C68.7290736,114.456768 73.7179056,119.4456 73.7179056,125.6"/></g></g><g id="Gly-16" transform="translate(79.000000, 158.000000)"><polygon id="Fill-1" points="0 78 78 78 78 0 0 0"/><g id="Group-12" fill="#002A99" transform="translate(8.000000, 8.000000)"><path id="Fill-2" d="M31,62 C13.87932,62 0,48.12068 0,31 C0,13.87932 13.87932,0 31,0 C48.12068,0 62,13.87932 62,31 C62,48.12068 48.12068,62 31,62 Z"/></g></g><g id="Gly-14"><polygon id="Fill-1" points="0 157 157 157 157 0 0 0"/><g id="Group-12" transform="translate(15.580052, 16.028695)"><path id="Fill-2" fill="#000F38" d="M125.6,62.8 C125.6,97.483184 97.483184,125.6 62.8,125.6 C28.116816,125.6 0,97.483184 0,62.8 C0,28.116816 28.116816,0 62.8,0 C97.483184,0 125.6,28.116816 125.6,62.8"/><polygon id="Fill-6" fill="#0046FF" points="116.523 80.568 116.523 45.032 112.081 40.59 76.544 40.59 72.102 45.032 72.102 80.568 76.544 85.01 112.081 85.01"/><polygon id="Fill-10" fill="#A7BFFF" points="96.534 82.789 114.302 65.021 114.302 60.579 96.534 42.811 92.092 42.811 74.324 60.579 74.324 65.021 92.092 82.789"/></g></g></g></g></g></g></svg>