<svg xmlns="http://www.w3.org/2000/svg" xmlns:xlink="http://www.w3.org/1999/xlink" width="943" height="1099" version="1.1" viewBox="0 0 943 1099"><title>Graph-2</title><g id="BitcoinComputer-Landingpage" fill="none" fill-rule="evenodd" stroke="none" stroke-width="1"><g id="Network–BlueAndOrange" transform="translate(-959.000000, -2669.000000)"><g id="Graph-2" transform="translate(960.000000, 2669.000000)"><g id="Wires-graph-2" stroke="#A7BFFF" transform="translate(0.000000, 75.881554)"><line id="Path-20" x1="235.377" x2="235.377" y1="821.973" y2="292.973"/><line id="Path-20-Copy" x1="870.383" x2="870.383" y1="404.534" y2="49.029"/><polyline id="Path-2" points="284.319 636.519 306.649 636.519 314 628.519 314 560.034 322 551.949 463 551.949 471 543.831 471 403.329 479 395.534 777 395.534 785 387.534 785 325.034 793 317.034 870.383 317.034"/><polyline id="Path-15" points="287.882 470.83 306 470.83 314 462.83 314 403.534 322 394.949 463 394.949 471.719 387.424 471.719 246.756 479 237.534 620 237.534 628 229.534 628 167.618 636 159.618 870.383 159.618"/><polyline id="Path-16" points="235.377 317.034 306 317.034 314 308.511 314 89.118 322 81.118 777 81.118 785 73.118 785 8 793 0 870.383 0"/><path id="Path-17" d="M235.376996,822.39225 C235.376996,846.17576 235.376996,858.067515 235.376996,858.067515 C235.376996,858.067515 232.27716,860.734181 226.077488,866.067515 L8.18109131,866.067515 L0,874.067515 L0,1023.06751"/><path id="Path" d="M298.180052,788.277363 C303.393351,788.277363 306,788.277363 306,788.277363 C306,788.277363 308.67507,785.693195 314.025209,780.52486 L314,718.159782 L322,709.067515 L620,709.448605 L628,701.067515 L628,560.118446 L636,552.118446 L777,551.948605 L785,544.120247 L785,481.215309 L792,473.7773 L870.383108,473.7773"/></g><g id="Gly-12" transform="translate(157.000000, 628.000000)"><rect id="Rectangle" width="157" height="157" x="0" y="0"/><path id="Fill-2" fill="#002A99" d="M78.380052,141.628695 C43.696868,141.628695 15.580052,113.511879 15.580052,78.8286952 C15.580052,44.1455112 43.696868,16.0286952 78.380052,16.0286952 C113.063236,16.0286952 141.180052,44.1455112 141.180052,78.8286952 C141.180052,113.511879 113.063236,141.628695 78.380052,141.628695 Z"/><polygon id="Fill-4" fill="#0046FF" points="69.077 96.597 69.077 61.061 64.636 56.619 29.099 56.619 24.657 61.061 24.657 96.597 29.099 101.039 64.636 101.039"/><polygon id="Fill-6" fill="#FFF" points="132.103 96.597 132.103 61.061 127.661 56.619 92.124 56.619 87.682 61.061 87.682 96.597 92.124 101.039 127.661 101.039"/><path id="Fill-8" fill="#A7BFFF" d="M62.5722872,78.8286952 C62.5722872,87.5020032 55.5411992,94.5337192 46.8672632,94.5337192 C38.1939552,94.5337192 31.1622392,87.5020032 31.1622392,78.8286952 C31.1622392,70.1553872 38.1939552,63.1236712 46.8672632,63.1236712 C55.5411992,63.1236712 62.5722872,70.1553872 62.5722872,78.8286952"/><polygon id="Fill-10" fill="#FF4B00" points="112.114 98.818 129.882 81.05 129.882 76.608 112.114 58.84 107.672 58.839 89.904 76.608 89.904 81.05 107.672 98.818"/><path id="Fill-25" fill="#FFF" d="M52.4390048,78.8286952 C52.4390048,81.9058952 49.9445888,84.4003112 46.8673888,84.4003112 C43.7901888,84.4003112 41.2957728,81.9058952 41.2957728,78.8286952 C41.2957728,75.7514952 43.7901888,73.2570792 46.8673888,73.2570792 C49.9445888,73.2570792 52.4390048,75.7514952 52.4390048,78.8286952"/></g><g id="Gly-13" transform="translate(157.000000, 785.330159)"><polygon id="Fill-1" points="0 157 157 157 157 0 0 0"/><g id="Group-12" transform="translate(15.580052, 16.028695)"><path id="Fill-2" fill="#000F38" d="M62.8,125.6 C28.116816,125.6 0,97.483184 0,62.8 C0,28.116816 28.116816,0 62.8,0 C97.483184,0 125.6,28.116816 125.6,62.8 C125.6,97.483184 97.483184,125.6 62.8,125.6 Z"/><polygon id="Fill-6" fill="#FFF" points="116.523 80.568 116.523 45.032 112.081 40.59 76.544 40.59 72.102 45.032 72.102 80.568 76.544 85.01 112.081 85.01"/><polygon id="Fill-10" fill="#002A99" points="96.534 82.789 114.302 65.021 114.302 60.579 96.534 42.811 92.092 42.811 74.324 60.579 74.324 65.021 92.092 82.789"/></g></g><g id="Gly-11" transform="translate(158.000000, 470.830159)"><polygon id="Fill-1" points="0 157 157 157 157 0 0 0"/><g id="Group-18" transform="translate(15.580052, 16.028695)"><path id="Fill-2" fill="#0046FF" d="M125.6,62.8 C125.6,97.483184 97.483184,125.6 62.8,125.6 C28.116816,125.6 0,97.483184 0,62.8 C0,28.116816 28.116816,0 62.8,0 C97.483184,0 125.6,28.116816 125.6,62.8"/><path id="Stroke-4" stroke="#00F" stroke-width=".141" d="M125.6,62.8 C125.6,97.483184 97.483184,125.6 62.8,125.6 C28.116816,125.6 0,97.483184 0,62.8 C0,28.116816 28.116816,0 62.8,0 C97.483184,0 125.6,28.116816 125.6,62.8 Z"/><polygon id="Fill-14" fill="#002A99" points="42.785 79.136 82.679 79.136 84.998 75.12 65.05 40.57 60.413 40.57 40.466 75.12"/></g></g><g id="Gly-10" transform="translate(158.000000, 313.915079)"><polygon id="Fill-1" points="0 157 157 157 157 0 0 0"/><g id="Group-12" transform="translate(15.580052, 16.028695)"><path id="Fill-2" fill="#A7BFFF" d="M62.8,125.6 C28.116816,125.6 0,97.483184 0,62.8 C0,28.116816 28.116816,0 62.8,0 C97.483184,0 125.6,28.116816 125.6,62.8 C125.6,97.483184 97.483184,125.6 62.8,125.6 Z"/><polygon id="Fill-4" fill="#0046FF" points="53.497 80.568 53.497 45.032 49.056 40.59 13.519 40.59 9.077 45.032 9.077 80.568 13.519 85.01 49.056 85.01"/><polygon id="Fill-6" fill="#0046FF" points="116.523 80.568 116.523 45.032 112.081 40.59 76.544 40.59 72.102 45.032 72.102 80.568 76.544 85.01 112.081 85.01"/><path id="Fill-8" fill="#002A99" d="M46.9922352,62.8 C46.9922352,71.473308 39.9611472,78.505024 31.2872112,78.505024 C22.6139032,78.505024 15.5821872,71.473308 15.5821872,62.8 C15.5821872,54.126692 22.6139032,47.094976 31.2872112,47.094976 C39.9611472,47.094976 46.9922352,54.126692 46.9922352,62.8"/><polygon id="Fill-10" fill="#002A99" points="96.534 82.789 114.302 65.021 114.302 60.579 96.534 42.811 92.092 42.811 74.324 60.579 74.324 65.021 92.092 82.789"/></g></g><g id="Gly-7" transform="translate(785.000000, 157.000000)"><polygon id="Fill-1" points="0 157 157 157 157 0 0 0"/><g id="Group-12" transform="translate(15.580052, 16.028695)"><path id="Fill-2" fill="#FFCF00" d="M62.8,125.6 C28.116816,125.6 0,97.483184 0,62.8 C0,28.116816 28.116816,0 62.8,0 C97.483184,0 125.6,28.116816 125.6,62.8 C125.6,97.483184 97.483184,125.6 62.8,125.6 Z"/><polygon id="Fill-4" fill="orange" points="53.497 80.568 53.497 45.032 49.056 40.59 13.519 40.59 9.077 45.032 9.077 80.568 13.519 85.01 49.056 85.01"/><polygon id="Fill-6" fill="orange" points="116.523 80.568 116.523 45.032 112.081 40.59 76.544 40.59 72.102 45.032 72.102 80.568 76.544 85.01 112.081 85.01"/><path id="Fill-8" fill="#FF4B00" d="M46.9922352,62.8 C46.9922352,71.473308 39.9611472,78.505024 31.2872112,78.505024 C22.6139032,78.505024 15.5821872,71.473308 15.5821872,62.8 C15.5821872,54.126692 22.6139032,47.094976 31.2872112,47.094976 C39.9611472,47.094976 46.9922352,54.126692 46.9922352,62.8"/><polygon id="Fill-10" fill="#FF4B00" points="96.534 82.789 114.302 65.021 114.302 60.579 96.534 42.811 92.092 42.811 74.324 60.579 74.324 65.021 92.092 82.789"/></g></g><g id="Gly-8" transform="translate(862.500000, 392.915079) rotate(-180.000000) translate(-862.500000, -392.915079) translate(784.000000, 314.415079)"><polygon id="Fill-1" points="0 157 157 157 157 0 0 0"/><g id="Group-12" transform="translate(15.580052, 16.028695)"><path id="Fill-2" fill="#0046FF" d="M125.6,62.8 C125.6,97.483184 97.483184,125.6 62.8,125.6 C28.116816,125.6 0,97.483184 0,62.8 C0,28.116816 28.116816,0 62.8,0 C97.483184,0 125.6,28.116816 125.6,62.8"/><polygon id="Fill-6" fill="#FFF" points="116.523 80.568 116.523 45.032 112.081 40.59 76.544 40.59 72.102 45.032 72.102 80.568 76.544 85.01 112.081 85.01"/><polygon id="Fill-10" fill="orange" points="96.534 82.789 114.302 65.021 114.302 60.579 96.534 42.811 92.092 42.811 74.324 60.579 74.324 65.021 92.092 82.789"/></g></g><g id="Gly-9" transform="translate(862.500000, 549.415079) rotate(-90.000000) translate(-862.500000, -549.415079) translate(784.000000, 470.915079)"><polygon id="Fill-1" points="0 157 157 157 157 0 0 0"/><g id="Group-26" transform="translate(15.580052, 16.028695)"><path id="Fill-2" fill="#002A99" d="M62.8,125.6 C28.116816,125.6 0,97.483184 0,62.8 C0,28.116816 28.116816,0 62.8,0 C97.483184,0 125.6,28.116816 125.6,62.8 C125.6,97.483184 97.483184,125.6 62.8,125.6 Z"/><polygon id="Fill-4" fill="#FFF" points="53.497 80.568 53.497 45.032 49.056 40.59 13.519 40.59 9.077 45.032 9.077 80.568 13.519 85.01 49.056 85.01"/><polygon id="Fill-6" fill="#FFF" points="116.523 80.568 116.523 45.032 112.081 40.59 76.544 40.59 72.102 45.032 72.102 80.568 76.544 85.01 112.081 85.01"/><path id="Fill-8" fill="#002A99" d="M46.9922352,62.8 C46.9922352,71.473308 39.9611472,78.505024 31.2872112,78.505024 C22.6139032,78.505024 15.5821872,71.473308 15.5821872,62.8 C15.5821872,54.126692 22.6139032,47.094976 31.2872112,47.094976 C39.9611472,47.094976 46.9922352,54.126692 46.9922352,62.8"/><polygon id="Fill-10" fill="#0046FF" points="96.534 82.789 114.302 65.021 114.302 60.579 96.534 42.811 92.092 42.811 74.324 60.579 74.324 65.021 92.092 82.789"/><path id="Fill-25" fill="#0046FF" d="M36.8589528,62.8 C36.8589528,65.8772 34.3645368,68.371616 31.2873368,68.371616 C28.2101368,68.371616 25.7157208,65.8772 25.7157208,62.8 C25.7157208,59.7228 28.2101368,57.228384 31.2873368,57.228384 C34.3645368,57.228384 36.8589528,59.7228 36.8589528,62.8"/></g></g><g id="Gly-6" transform="translate(785.000000, 0.000000)"><polygon id="Fill-1" points="0 157 157 157 157 0 0 0"/><path id="Fill-2" fill="#0046FF" d="M78.380052,141.628695 C43.696868,141.628695 15.580052,113.511879 15.580052,78.8286952 C15.580052,44.1455112 43.696868,16.0286952 78.380052,16.0286952 C113.063236,16.0286952 141.180052,44.1455112 141.180052,78.8286952 C141.180052,113.511879 113.063236,141.628695 78.380052,141.628695 Z"/><polygon id="Fill-6" fill="#FFF" points="122.783 114.351 122.783 43.306 113.902 34.426 42.857 34.426 33.977 43.306 33.977 114.351 42.857 123.232 113.902 123.232"/><path id="Fill-10" fill="#A7BFFF" d="M109.892715,78.8286952 C109.892715,96.2324592 95.7840672,110.341107 78.3803032,110.341107 C60.9759112,110.341107 46.8672632,96.2324592 46.8672632,78.8286952 C46.8672632,61.4249312 60.9759112,47.3162832 78.3803032,47.3162832 C95.7840672,47.3162832 109.892715,61.4249312 109.892715,78.8286952"/><polygon id="Fill-14" fill="#002A99" points="58.365 95.165 98.259 95.165 100.578 91.149 80.63 56.599 75.993 56.599 56.046 91.149"/></g><polygon id="Fill-10" fill="#0046FF" points="470.889 590.601 474 587.49 474 586.713 470.889 583.601 470.111 583.601 467 586.713 467 587.49 470.111 590.601" transform="translate(470.500000, 587.101336) scale(1, -1) translate(-470.500000, -587.101336)"/><polygon id="Fill-14" fill="orange" points="625.301 278.415 630.473 278.415 630.773 277.894 628.187 273.415 627.586 273.415 625 277.894"/><polygon id="Fill-10" fill="#0046FF" points="314.339 192 317.45 188.889 317.45 188.111 314.339 185 313.561 185 310.45 188.111 310.45 188.889 313.561 192" transform="translate(313.949786, 188.499961) scale(1, -1) rotate(-315.000000) translate(-313.949786, -188.499961)"/><circle id="Oval" cx="628.066" cy="713.481" r="2.066" fill="#0046FF"/></g></g></g></svg>