<svg xmlns="http://www.w3.org/2000/svg" xmlns:xlink="http://www.w3.org/1999/xlink" width="1922" height="1885" version="1.1" viewBox="0 0 1922 1885"><title>Turning-Complete-Graph</title><g id="BitcoinComputer-Landingpage" fill="none" fill-rule="evenodd" stroke="none" stroke-width="1"><g id="Turning-Complete-Graph" transform="translate(1.000000, 0.000000)"><g id="Group" stroke="#DFDFDF" stroke-linecap="square" transform="translate(0.000000, 0.500133)"><g id="Grid-Module"><g id="V-Grid-line" transform="translate(1273.500000, 0.000000)"><line x1=".5" x2=".5" y1="0" y2="1884"/></g><g id="V-Grid-line" transform="translate(645.500000, 0.000000)"><line x1=".5" x2=".5" y1="0" y2="1884"/></g><g id="V-Grid-line" transform="translate(17.500000, 0.000000)"><line x1=".5" x2=".5" y1="0" y2="1884"/></g><g id="V-Grid-line" transform="translate(1587.500000, 0.000000)"><line x1=".5" x2=".5" y1="0" y2="1884"/></g><g id="V-Grid-line" transform="translate(959.500000, 0.000000)"><line x1=".5" x2=".5" y1="0" y2="1884"/></g><g id="V-Grid-line" transform="translate(331.500000, 0.000000)"><line x1=".5" x2=".5" y1="0" y2="1884"/></g><g id="V-Grid-line" transform="translate(1901.500000, 0.000000)"><line x1=".5" x2=".5" y1="0" y2="1884"/></g><g id="H-Grid-line" transform="translate(0.000000, 313.583179)"><line x1="1920" x2="0" y1=".5" y2=".5"/></g><g id="H-Grid-line" transform="translate(0.000000, 627.666490)"><line x1="1920" x2="0" y1=".5" y2=".5"/></g><g id="H-Grid-line" transform="translate(0.000000, 941.749801)"><line x1="1920" x2="0" y1=".5" y2=".5"/></g><g id="H-Grid-line" transform="translate(0.000000, 1255.833112)"><line x1="1920" x2="0" y1=".5" y2=".5"/></g><g id="H-Grid-line" transform="translate(0.000000, 1569.916423)"><line x1="1920" x2="0" y1=".5" y2=".5"/></g><g id="H-Grid-line" transform="translate(0.000000, 1883.499602)"><line x1="1920" x2="0" y1=".5" y2=".5"/></g></g></g><g id="Group-67" transform="translate(1276.000000, 316.583975)"><polygon id="Fill-1" points="0 631.167 631 631.167 631 0 0 0"/><g id="Group-66" transform="translate(61.778938, 64.438154)"><path id="Fill-2" fill="#4B7CFF" d="M504.8,252.466967 C504.8,391.899424 391.795472,504.933935 252.4,504.933935 C113.004528,504.933935 0,391.899424 0,252.466967 C0,113.034511 113.004528,0 252.4,0 C391.795472,0 504.8,113.034511 504.8,252.466967"/><polygon id="Fill-6" fill="#0046FF" points="479.543 227.222 277.638 25.264 227.163 25.264 25.256 227.222 25.256 277.71 227.161 479.671 277.638 479.671 479.543 277.71"/><polygon id="Stroke-8" stroke="#00F" stroke-width=".141" points="479.543 227.222 277.638 25.264 227.163 25.264 25.256 227.222 25.256 277.71 227.161 479.671 277.638 479.671 479.543 277.71"/><path id="Fill-10" fill="#002A99" d="M379.052806,252.466967 C379.052806,322.433138 322.348622,379.152367 252.40101,379.152367 C182.450874,379.152367 125.74669,322.433138 125.74669,252.466967 C125.74669,182.500797 182.450874,125.781568 252.40101,125.781568 C322.348622,125.781568 379.052806,182.500797 379.052806,252.466967"/><polygon id="Fill-14" fill="#000F38" points="265.066 366.494 366.397 265.136 366.397 239.799 265.066 138.441 239.733 138.441 138.402 239.796 138.402 265.136 239.733 366.494"/><path id="Fill-18" fill="#000F38" d="M207.643675,297.235167 C182.926143,297.235167 162.888107,277.191815 162.888107,252.467725 C162.888107,227.74111 182.926143,207.697757 207.643675,207.697757 C232.361207,207.697757 252.399243,227.74111 252.399243,252.467725 C252.399243,277.191815 232.361207,297.235167 207.643675,297.235167"/><polygon id="Fill-22" fill="#FFF" points="272.287 283.941 322.631 283.941 328.926 277.647 328.926 227.287 322.631 220.993 272.287 220.993 265.995 227.287 265.995 277.647"/><path id="Fill-26" fill="#A7BFFF" d="M297.459205,274.813576 C285.121893,274.813576 275.119281,264.80831 275.119281,252.467725 C275.119281,240.124615 285.121893,230.119349 297.459205,230.119349 C309.796517,230.119349 319.799129,240.124615 319.799129,252.467725 C319.799129,264.80831 309.796517,274.813576 297.459205,274.813576"/><polygon id="Fill-34" fill="#002A99" points="298.584 262.589 307.579 253.591 307.579 251.342 298.584 242.344 296.335 242.344 287.339 251.342 287.339 253.591 296.335 262.589"/><path id="Fill-38" fill="#FFF" d="M207.643675,283.890268 C190.293699,283.890268 176.229971,269.822809 176.229971,252.46823 C176.229971,235.11365 190.293699,221.043666 207.643675,221.043666 C224.993651,221.043666 239.057379,235.11365 239.057379,252.46823 C239.057379,269.822809 224.993651,283.890268 207.643675,283.890268"/><polygon id="Fill-42" fill="#A7BFFF" points="209.86 272.421 227.591 254.685 227.591 250.249 209.86 232.513 205.428 232.513 187.694 250.249 187.694 254.685 205.428 272.421"/><path id="Fill-46" fill="#0046FF" d="M215.627087,258.127024 C212.499851,258.127024 209.965755,255.592256 209.965755,252.46419 C209.965755,249.336125 212.499851,246.798831 215.627087,246.798831 C218.754323,246.798831 221.288419,249.336125 221.288419,252.46419 C221.288419,255.592256 218.754323,258.127024 215.627087,258.127024"/><path id="Fill-54" fill="#0046FF" d="M199.667582,256.465034 C197.459082,256.465034 195.667042,254.672519 195.667042,252.463433 C195.667042,250.254347 197.459082,248.461831 199.667582,248.461831 C201.876082,248.461831 203.668122,250.254347 203.668122,252.463433 C203.668122,254.672519 201.876082,256.465034 199.667582,256.465034"/></g></g><g id="Grid-Cell-Subdivision-Graph1" stroke="#DFDFDF" stroke-linecap="square" transform="translate(960.000000, 0.500133)"><g id="Grid-Cell-Sub" transform="translate(314.000000, 942.249934)"><line id="Line-4" x1="157.5" x2="157.5" y1=".5" y2="313.583"/><line id="Line-4-Copy" x1="157.25" x2="157.25" y1="-.208" y2="313.292" transform="translate(157.250000, 156.541523) rotate(-90.000000) translate(-157.250000, -156.541523)"/></g><g id="Grid-Cell-Sub" transform="translate(314.000000, 1256.333245)"><line id="Line-4" x1="157.5" x2="157.5" y1=".5" y2="313.583"/><line id="Line-4-Copy" x1="157.25" x2="157.25" y1="-.208" y2="313.292" transform="translate(157.250000, 156.541523) rotate(-90.000000) translate(-157.250000, -156.541523)"/></g><g id="Grid-Cell-Sub" transform="translate(628.000000, 1570.416556)"><line id="Line-4" x1="157.5" x2="157.5" y1=".5" y2="313.583"/><line id="Line-4-Copy" x1="157.25" x2="157.25" y1="-.208" y2="313.292" transform="translate(157.250000, 156.541523) rotate(-90.000000) translate(-157.250000, -156.541523)"/></g><g id="Grid-Cell-Sub"><line id="Line-4" x1="157.5" x2="157.5" y1=".5" y2="313.583"/><line id="Line-4-Copy" x1="157.25" x2="157.25" y1="-.208" y2="313.292" transform="translate(157.250000, 156.541523) rotate(-90.000000) translate(-157.250000, -156.541523)"/></g></g><g id="Wire-3" transform="translate(1118.355904, 934.747944)"><polyline id="Path-3" stroke="#A7BFFF" points="0 146.213 0 16.004 8 8.002 462.644 8.002 470.644 0"/><polygon id="Fill-10" fill="#0046FF" points="56.033 11.503 59.144 8.391 59.144 7.613 56.033 4.501 55.255 4.501 52.144 7.613 52.144 8.391 55.255 11.503" transform="translate(55.644096, 8.002123) scale(1, -1) translate(-55.644096, -8.002123)"/></g><polyline id="Wire-8" stroke="#A7BFFF" points="1357 964.193 1357 947.421 1361.67 942.75"/><g id="Wire-1" transform="translate(0.000000, 315.083577)"><polyline id="Path-11" stroke="#A7BFFF" points="0 0 9.933 0 17.933 8.002 17.933 305.081 25.974 313.083 324.5 313.083 332.5 321.085 332.5 933.998 340.5 942 1110.5 942 1118.5 933.748 1118.5 856.594"/><path id="Fill-8" fill="#0046FF" d="M21.5,50.5133988 C21.5,52.4468331 19.9330614,54.0143274 18,54.0143274 C16.0670785,54.0143274 14.5,52.4468331 14.5,50.5133988 C14.5,48.5799645 16.0670785,47.0124702 18,47.0124702 C19.9330614,47.0124702 21.5,48.5799645 21.5,50.5133988"/><polygon id="Fill-10" fill="#0046FF" points="332.389 876.233 335.5 873.121 335.5 872.343 332.389 869.231 331.611 869.231 328.5 872.343 328.5 873.121 331.611 876.233" transform="translate(332.000000, 872.731549) scale(1, -1) translate(-332.000000, -872.731549)"/></g><g id="Wire-7" stroke="#A7BFFF" transform="translate(1588.000000, 1257.315273)"><polyline id="Path-10" points="0 0 8.5 8.002 332 8.002" transform="translate(166.000000, 4.001061) scale(1, -1) translate(-166.000000, -4.001061)"/></g><g id="Wire-6" transform="translate(1585.113261, 632.163659)"><polyline id="Path-7" stroke="#A7BFFF" points="85.266 1026.105 10.887 1026.105 2.887 1018.103 2.887 .005"/><polygon id="Fill-14-Copy" fill="#0046FF" points=".301 972.817 5.473 972.817 5.773 972.296 3.187 967.815 2.586 967.815 0 972.296" transform="translate(2.886739, 970.316018) rotate(-180.000000) translate(-2.886739, -970.316018)"/></g><g id="Wire-5" transform="translate(1505.613261, 1249.081321)"><polyline id="Path-6" stroke="#A7BFFF" points="82.387 0 73.887 8.002 9.64 8.002 2.764 16.004 2.764 268.486"/><polygon id="Fill-14" fill="#0046FF" points=".301 115.612 5.473 115.612 5.773 115.091 3.187 110.611 2.586 110.611 0 115.091"/></g><g id="Wire-4" transform="translate(1118.000000, 1028.272751)"><polyline id="Path-4" stroke="#A7BFFF" points="295 0 164.538 0 156.038 8.002 156.038 63.049 148.538 70.816 0 70.816"/><path id="Fill-8" fill="#0046FF" d="M156,50.2133192 C154.067079,50.2133192 152.5,48.6458249 152.5,46.7123906 C152.5,44.7789562 154.067079,43.2114619 156,43.2114619 C157.933061,43.2114619 159.5,44.7789562 159.5,46.7123906 C159.5,48.6458249 157.933061,50.2133192 156,50.2133192 Z"/></g><g id="Wire-2" transform="translate(960.000000, 0.000000)"><rect id="Rectangle" width="628" height="629.167" x="0" y="0"/><polyline id="Path-5" stroke="#A7BFFF" points="543.595 628.667 322.518 628.667 314 620.596 314 246.065 306 238.063 228.549 238.063"/><polygon id="Fill-10" fill="#0046FF" points="315.389 570.651 318.501 567.54 318.5 566.762 315.388 563.65 314.611 563.65 311.499 566.761 311.5 567.539 314.612 570.651" transform="translate(315.000000, 567.150493) scale(1, -1) rotate(-315.000000) translate(-315.000000, -567.150493)"/></g><g id="Gly-4" transform="translate(1430.500000, 1412.374635)"><polygon id="Fill-1" points="0 157.042 157 157.042 157 0 0 0"/><g id="Group-18" transform="translate(15.580052, 16.032948)"><path id="Fill-2" fill="#0046FF" d="M125.6,62.8166622 C125.6,97.5090485 97.483184,125.633324 62.8,125.633324 C28.116816,125.633324 0,97.5090485 0,62.8166622 C0,28.124276 28.116816,0 62.8,0 C97.483184,0 125.6,28.124276 125.6,62.8166622"/><path id="Stroke-4" stroke="#00F" stroke-width=".141" d="M125.6,62.8166622 C125.6,97.5090485 97.483184,125.633324 62.8,125.633324 C28.116816,125.633324 0,97.5090485 0,62.8166622 C0,28.124276 28.116816,0 62.8,0 C97.483184,0 125.6,28.124276 125.6,62.8166622 Z"/><polygon id="Fill-14" fill="#002A99" points="42.785 79.157 82.679 79.157 84.998 75.14 65.05 40.581 60.413 40.581 40.466 75.14"/></g></g><g id="Gly-5" transform="translate(1667.000000, 1648.937384) rotate(-180.000000) translate(-1667.000000, -1648.937384) translate(1588.500000, 1570.416556)"><polygon id="Fill-1" points="0 157.042 157 157.042 157 0 0 0"/><g id="Group-12" transform="translate(15.580052, 16.032948)"><path id="Fill-2" fill="#002A99" d="M62.8,125.633324 C28.116816,125.633324 0,97.5090485 0,62.8166622 C0,28.124276 28.116816,0 62.8,0 C97.483184,0 125.6,28.124276 125.6,62.8166622 C125.6,97.5090485 97.483184,125.633324 62.8,125.633324 Z"/><polygon id="Fill-4" fill="#FFF" points="53.497 80.589 53.497 45.044 49.056 40.601 13.519 40.601 9.077 45.044 9.077 80.589 13.519 85.032 49.056 85.032"/><polygon id="Fill-6" fill="#FFF" points="116.523 80.589 116.523 45.044 112.081 40.601 76.544 40.601 72.102 45.044 72.102 80.589 76.544 85.032 112.081 85.032"/><path id="Fill-8" fill="orange" d="M46.9922352,62.8166622 C46.9922352,71.4922715 39.9611472,78.5258531 31.2872112,78.5258531 C22.6139032,78.5258531 15.5821872,71.4922715 15.5821872,62.8166622 C15.5821872,54.141053 22.6139032,47.1074714 31.2872112,47.1074714 C39.9611472,47.1074714 46.9922352,54.141053 46.9922352,62.8166622"/><polygon id="Fill-10" fill="#FF4B00" points="96.534 82.811 114.302 65.038 114.302 60.595 96.534 42.823 92.092 42.822 74.324 60.595 74.324 65.038 92.092 82.811"/></g></g><g id="Gly-turningCompl" transform="translate(1275.000000, 315.583709)"><polygon id="Fill-1" points="0 627.166 628 627.166 628 0 0 0"/><g id="Group-66" transform="translate(61.000000, 65.017246)"><path id="Fill-2" fill="#4B7CFF" d="M503,251.566729 C503,390.502001 390.39842,503.133457 251.5,503.133457 C112.60158,503.133457 0,390.502001 0,251.566729 C0,112.631456 112.60158,0 251.5,0 C390.39842,0 503,112.631456 503,251.566729"/><path id="Stroke-4" stroke="#0046FF" stroke-width=".141" d="M503,251.566729 C503,390.502001 390.39842,503.133457 251.5,503.133457 C112.60158,503.133457 0,390.502001 0,251.566729 C0,112.631456 112.60158,0 251.5,0 C390.39842,0 503,112.631456 503,251.566729 Z"/><polygon id="Fill-6" fill="#0046FF" points="477.833 226.412 276.648 25.174 226.353 25.174 25.166 226.412 25.166 276.72 226.351 477.961 276.648 477.961 477.833 276.72"/><polygon id="Stroke-8" stroke="#00F" stroke-width=".141" points="477.833 226.412 276.648 25.174 226.353 25.174 25.166 226.412 25.166 276.72 226.351 477.961 276.648 477.961 477.833 276.72"/><path id="Fill-10" fill="#002A99" d="M377.701191,251.566729 C377.701191,321.283416 321.199201,377.800397 251.501006,377.800397 C181.800296,377.800397 125.298306,321.283416 125.298306,251.566729 C125.298306,181.850041 181.800296,125.33306 251.501006,125.33306 C321.199201,125.33306 377.701191,181.850041 377.701191,251.566729"/><polygon id="Fill-14" fill="#FFF" points="264.121 365.187 365.091 264.191 365.091 238.944 264.121 137.947 238.878 137.947 137.909 238.941 137.909 264.191 238.878 365.187"/><path id="Fill-18" fill="#A7BFFF" d="M162.307286,251.567483 C162.307286,226.929038 182.273871,206.957155 206.903266,206.957155 C231.532661,206.957155 251.499246,226.929038 251.499246,251.567483 C251.499246,276.203413 231.532661,296.175296 206.903266,296.175296 C182.273871,296.175296 162.307286,276.203413 162.307286,251.567483 Z"/><polygon id="Fill-22" fill="#FFCF00" points="271.317 282.92 321.488 282.927 327.76 276.657 327.754 226.484 321.48 220.212 271.309 220.206 265.039 226.476 265.046 276.649" transform="translate(296.399596, 251.566421) rotate(-315.000000) translate(-296.399596, -251.566421)"/><path id="Fill-26" fill="orange" d="M296.398534,273.833654 C284.105214,273.833654 274.138269,263.864065 274.138269,251.567483 C274.138269,239.268386 284.105214,229.298796 296.398534,229.298796 C308.691854,229.298796 318.658799,239.268386 318.658799,251.567483 C318.658799,263.864065 308.691854,273.833654 296.398534,273.833654"/><polygon id="Fill-34" fill="#FF4B00" points="297.519 261.653 306.482 252.687 306.482 250.445 297.519 241.48 295.278 241.48 286.315 250.445 286.315 252.687 295.278 261.653"/><path id="Fill-38" fill="#0046FF" d="M206.903266,282.877981 C189.615156,282.877981 175.601575,268.860683 175.601575,251.567986 C175.601575,234.275289 189.615156,220.255476 206.903266,220.255476 C224.191376,220.255476 238.204956,234.275289 238.204956,251.567986 C238.204956,268.860683 224.191376,282.877981 206.903266,282.877981"/><polygon id="Fill-42" fill="#002A99" points="209.112 271.45 226.78 253.777 226.78 249.357 209.112 231.684 204.696 231.684 187.025 249.357 187.025 253.777 204.696 271.45"/><path id="Fill-46" fill="#FF4B00" d="M209.217066,251.563961 C209.217066,248.44705 211.742126,245.918804 214.858211,245.918804 C217.974296,245.918804 220.499356,248.44705 220.499356,251.563961 C220.499356,254.680873 217.974296,257.206603 214.858211,257.206603 C211.742126,257.206603 209.217066,254.680873 209.217066,251.563961 Z"/><path id="Fill-54" fill="#000F38" d="M198.955614,255.550539 C196.754989,255.550539 194.969339,253.764416 194.969339,251.563207 C194.969339,249.361998 196.754989,247.575874 198.955614,247.575874 C201.156239,247.575874 202.941889,249.361998 202.941889,251.563207 C202.941889,253.764416 201.156239,255.550539 198.955614,255.550539"/></g></g><g id="Gly-1" transform="translate(1117.500000, 158.542054)"><polygon id="Fill-1" points="0 157.042 157 157.042 157 0 0 0"/><g id="Group-12" transform="translate(15.580052, 16.032948)"><path id="Fill-2" fill="#A7BFFF" d="M125.6,62.8166622 C125.6,97.5090485 97.483184,125.633324 62.8,125.633324 C28.116816,125.633324 0,97.5090485 0,62.8166622 C0,28.124276 28.116816,0 62.8,0 C97.483184,0 125.6,28.124276 125.6,62.8166622"/><polygon id="Fill-6" fill="#FFF" points="116.523 80.589 116.523 45.044 112.081 40.601 76.544 40.601 72.102 45.044 72.102 80.589 76.544 85.032 112.081 85.032"/><polygon id="Fill-10" fill="#002A99" points="96.534 82.811 114.302 65.038 114.302 60.595 96.534 42.823 92.092 42.822 74.324 60.595 74.324 65.038 92.092 82.811"/></g></g><g id="Gly-2" transform="translate(960.000000, 942.750066)"><polygon id="Fill-1" points="0 314.083 314 314.083 314 0 0 0"/><g id="Group-14" transform="translate(31.000000, 32.008490)"><path id="Fill-2" fill="#0046FF" d="M251,125.533298 C251,194.863488 194.811519,251.066596 125.499372,251.066596 C56.1884811,251.066596 0,194.863488 0,125.533298 C0,56.2031079 56.1884811,0 125.499372,0 C194.811519,0 251,56.2031079 251,125.533298"/><polygon id="Fill-4" fill="#FFF" points="232.458 161.17 232.458 89.897 223.552 80.988 152.297 80.988 143.391 89.897 143.391 161.17 152.297 170.079 223.552 170.079"/><path id="Fill-6" fill="#FFF" d="M107.204989,125.533298 C107.204989,150.075125 87.3153949,169.969897 62.779955,169.969897 C38.245771,169.969897 18.3561765,150.075125 18.3561765,125.533298 C18.3561765,100.991471 38.245771,81.096699 62.779955,81.096699 C87.3153949,81.096699 107.204989,100.991471 107.204989,125.533298"/><polygon id="Fill-8" fill="#002A99" points="84.969 143.288 84.969 107.778 80.532 103.339 45.03 103.339 40.593 107.778 40.593 143.288 45.03 147.727 80.532 147.727"/><polygon id="Fill-12" fill="#002A99" points="169.26 141.065 208.302 141.065 210.57 137.134 191.05 103.314 186.512 103.314 166.991 137.134"/></g></g><g id="Gly-3" transform="translate(1274.000000, 940.749536)"><polygon id="Fill-1" points="0 157.042 157 157.042 157 0 0 0"/><g id="Group-26" transform="translate(14.867424, 15.466224)"><path id="Fill-2" fill="#000F38" d="M62.7405303,125.514354 C28.0901902,125.514354 0,97.4167104 0,62.7571768 C0,28.0976432 28.0901902,0 62.7405303,0 C97.3908704,0 125.481061,28.0976432 125.481061,62.7571768 C125.481061,97.4167104 97.3908704,125.514354 62.7405303,125.514354 Z"/><polygon id="Fill-4" fill="#FFF" points="53.447 80.513 53.447 45.001 49.009 40.563 13.506 40.563 9.069 45.001 9.069 80.513 13.506 84.952 49.009 84.952"/><polygon id="Fill-6" fill="#FFF" points="116.412 80.513 116.412 45.001 111.975 40.563 76.472 40.563 72.034 45.001 72.034 80.513 76.472 84.952 111.975 84.952"/><path id="Fill-8" fill="orange" d="M31.2575832,78.4514915 C22.5924885,78.4514915 15.5674313,71.4245705 15.5674313,62.7571768 C15.5674313,54.0897831 22.5924885,47.062862 31.2575832,47.062862 C39.9233052,47.062862 46.947735,54.0897831 46.947735,62.7571768 C46.947735,71.4245705 39.9233052,78.4514915 31.2575832,78.4514915 Z"/><polygon id="Fill-10" fill="#FFCF00" points="96.442 82.733 114.193 64.977 114.193 60.538 96.442 42.782 92.005 42.781 74.253 60.538 74.253 64.977 92.005 82.733"/><path id="Fill-25" fill="#FF4B00" d="M31.2577086,68.3249935 C28.1834227,68.3249935 25.6913688,65.8322784 25.6913688,62.7571768 C25.6913688,59.6820751 28.1834227,57.18936 31.2577086,57.18936 C34.3319946,57.18936 36.8240485,59.6820751 36.8240485,62.7571768 C36.8240485,65.8322784 34.3319946,68.3249935 31.2577086,68.3249935 Z"/></g></g></g></g></svg>