<svg xmlns="http://www.w3.org/2000/svg" xmlns:xlink="http://www.w3.org/1999/xlink" width="157" height="158" version="1.1" viewBox="0 0 157 158"><title>Gly-13</title><g id="BitcoinComputer-Landingpage" fill="none" fill-rule="evenodd" stroke="none" stroke-width="1"><g id="Network–BlueAndOrange-ColorsSlightlyChanged" transform="translate(-1117.000000, -3454.000000)"><g id="Graph-2" transform="translate(960.000000, 2669.000000)"><g id="Gly-13" transform="translate(157.000000, 785.330159)"><polygon id="Fill-1" points="0 157 157 157 157 0 0 0"/><g id="Group-12" transform="translate(15.580052, 16.028695)"><path id="Fill-2" fill="#000F38" d="M62.8,125.6 C28.116816,125.6 0,97.483184 0,62.8 C0,28.116816 28.116816,0 62.8,0 C97.483184,0 125.6,28.116816 125.6,62.8 C125.6,97.483184 97.483184,125.6 62.8,125.6 Z"/><polygon id="Fill-6" fill="#FFF" points="116.523 80.568 116.523 45.032 112.081 40.59 76.544 40.59 72.102 45.032 72.102 80.568 76.544 85.01 112.081 85.01"/><polygon id="Fill-10" fill="#002A99" points="96.534 82.789 114.302 65.021 114.302 60.579 96.534 42.811 92.092 42.811 74.324 60.579 74.324 65.021 92.092 82.789"/></g></g></g></g></g></svg>