<svg xmlns="http://www.w3.org/2000/svg" xmlns:xlink="http://www.w3.org/1999/xlink" width="157" height="158" version="1.1" viewBox="0 0 157 158"><title>Gly-3</title><g id="BitcoinComputer-Landingpage" fill="none" fill-rule="evenodd" stroke="none" stroke-width="1"><g id="Network–BlueAndOrange-ColorsSlightlyChanged" transform="translate(-1274.000000, -940.000000)"><g id="Gly-3" transform="translate(1274.000000, 940.749536)"><polygon id="Fill-1" points="0 157.042 157 157.042 157 0 0 0"/><g id="Group-26" transform="translate(14.867424, 15.466224)"><path id="Fill-2" fill="#000F38" d="M62.7405303,125.514354 C28.0901902,125.514354 0,97.4167104 0,62.7571768 C0,28.0976432 28.0901902,0 62.7405303,0 C97.3908704,0 125.481061,28.0976432 125.481061,62.7571768 C125.481061,97.4167104 97.3908704,125.514354 62.7405303,125.514354 Z"/><polygon id="Fill-4" fill="#FFF" points="53.447 80.513 53.447 45.001 49.009 40.563 13.506 40.563 9.069 45.001 9.069 80.513 13.506 84.952 49.009 84.952"/><polygon id="Fill-6" fill="#FFF" points="116.412 80.513 116.412 45.001 111.975 40.563 76.472 40.563 72.034 45.001 72.034 80.513 76.472 84.952 111.975 84.952"/><path id="Fill-8" fill="orange" d="M31.2575832,78.4514915 C22.5924885,78.4514915 15.5674313,71.4245705 15.5674313,62.7571768 C15.5674313,54.0897831 22.5924885,47.062862 31.2575832,47.062862 C39.9233052,47.062862 46.947735,54.0897831 46.947735,62.7571768 C46.947735,71.4245705 39.9233052,78.4514915 31.2575832,78.4514915 Z"/><polygon id="Fill-10" fill="#FFCF00" points="96.442 82.733 114.193 64.977 114.193 60.538 96.442 42.782 92.005 42.781 74.253 60.538 74.253 64.977 92.005 82.733"/><path id="Fill-25" fill="#FF4B00" d="M31.2577086,68.3249935 C28.1834227,68.3249935 25.6913688,65.8322784 25.6913688,62.7571768 C25.6913688,59.6820751 28.1834227,57.18936 31.2577086,57.18936 C34.3319946,57.18936 36.8240485,59.6820751 36.8240485,62.7571768 C36.8240485,65.8322784 34.3319946,68.3249935 31.2577086,68.3249935 Z"/></g></g></g></g></svg>