<svg xmlns="http://www.w3.org/2000/svg" xmlns:xlink="http://www.w3.org/1999/xlink" width="314" height="315" version="1.1" viewBox="0 0 314 315"><title>Gly-2</title><g id="BitcoinComputer-Landingpage" fill="none" fill-rule="evenodd" stroke="none" stroke-width="1"><g id="Network–BlueAndOrange-ColorsSlightlyChanged" transform="translate(-960.000000, -942.000000)"><g id="Gly-2" transform="translate(960.000000, 942.750066)"><polygon id="Fill-1" points="0 314.083 314 314.083 314 0 0 0"/><g id="Group-14" transform="translate(31.000000, 32.008490)"><path id="Fill-2" fill="#0046FF" d="M251,125.533298 C251,194.863488 194.811519,251.066596 125.499372,251.066596 C56.1884811,251.066596 0,194.863488 0,125.533298 C0,56.2031079 56.1884811,0 125.499372,0 C194.811519,0 251,56.2031079 251,125.533298"/><polygon id="Fill-4" fill="#FFF" points="232.458 161.17 232.458 89.897 223.552 80.988 152.297 80.988 143.391 89.897 143.391 161.17 152.297 170.079 223.552 170.079"/><path id="Fill-6" fill="#FFF" d="M107.204989,125.533298 C107.204989,150.075125 87.3153949,169.969897 62.779955,169.969897 C38.245771,169.969897 18.3561765,150.075125 18.3561765,125.533298 C18.3561765,100.991471 38.245771,81.096699 62.779955,81.096699 C87.3153949,81.096699 107.204989,100.991471 107.204989,125.533298"/><polygon id="Fill-8" fill="#002A99" points="84.969 143.288 84.969 107.778 80.532 103.339 45.03 103.339 40.593 107.778 40.593 143.288 45.03 147.727 80.532 147.727"/><polygon id="Fill-12" fill="#002A99" points="169.26 141.065 208.302 141.065 210.57 137.134 191.05 103.314 186.512 103.314 166.991 137.134"/></g></g></g></g></svg>