<svg xmlns="http://www.w3.org/2000/svg" xmlns:xlink="http://www.w3.org/1999/xlink" width="158" height="158" version="1.1" viewBox="0 0 158 158"><title>Gly-1</title><g id="BitcoinComputer-Landingpage" fill="none" fill-rule="evenodd" stroke="none" stroke-width="1"><g id="Network–BlueAndOrange-ColorsSlightlyChanged" transform="translate(-1117.000000, -158.000000)"><g id="Gly-1" transform="translate(1117.500000, 158.542054)"><polygon id="Fill-1" points="0 157.042 157 157.042 157 0 0 0"/><g id="Group-12" transform="translate(15.580052, 16.032948)"><path id="Fill-2" fill="#A7BFFF" d="M125.6,62.8166622 C125.6,97.5090485 97.483184,125.633324 62.8,125.633324 C28.116816,125.633324 0,97.5090485 0,62.8166622 C0,28.124276 28.116816,0 62.8,0 C97.483184,0 125.6,28.124276 125.6,62.8166622"/><polygon id="Fill-6" fill="#FFF" points="116.523 80.589 116.523 45.044 112.081 40.601 76.544 40.601 72.102 45.044 72.102 80.589 76.544 85.032 112.081 85.032"/><polygon id="Fill-10" fill="#002A99" points="96.534 82.811 114.302 65.038 114.302 60.595 96.534 42.823 92.092 42.822 74.324 60.595 74.324 65.038 92.092 82.811"/></g></g></g></g></svg>