<svg xmlns="http://www.w3.org/2000/svg" xmlns:xlink="http://www.w3.org/1999/xlink" width="157" height="157" version="1.1" viewBox="0 0 157 157"><title>Gly-6</title><g id="BitcoinComputer-Landingpage" fill="none" fill-rule="evenodd" stroke="none" stroke-width="1"><g id="Network–BlueAndOrange-ColorsSlightlyChanged" transform="translate(-1745.000000, -2669.000000)"><g id="Graph-2" transform="translate(960.000000, 2669.000000)"><g id="Gly-6" transform="translate(785.000000, 0.000000)"><polygon id="Fill-1" points="0 157 157 157 157 0 0 0"/><path id="Fill-2" fill="#0046FF" d="M78.380052,141.628695 C43.696868,141.628695 15.580052,113.511879 15.580052,78.8286952 C15.580052,44.1455112 43.696868,16.0286952 78.380052,16.0286952 C113.063236,16.0286952 141.180052,44.1455112 141.180052,78.8286952 C141.180052,113.511879 113.063236,141.628695 78.380052,141.628695 Z"/><polygon id="Fill-6" fill="#FFF" points="122.783 114.351 122.783 43.306 113.902 34.426 42.857 34.426 33.977 43.306 33.977 114.351 42.857 123.232 113.902 123.232"/><path id="Fill-10" fill="#A7BFFF" d="M109.892715,78.8286952 C109.892715,96.2324592 95.7840672,110.341107 78.3803032,110.341107 C60.9759112,110.341107 46.8672632,96.2324592 46.8672632,78.8286952 C46.8672632,61.4249312 60.9759112,47.3162832 78.3803032,47.3162832 C95.7840672,47.3162832 109.892715,61.4249312 109.892715,78.8286952"/><polygon id="Fill-14" fill="#002A99" points="58.365 95.165 98.259 95.165 100.578 91.149 80.63 56.599 75.993 56.599 56.046 91.149"/></g></g></g></g></svg>