<svg xmlns="http://www.w3.org/2000/svg" xmlns:xlink="http://www.w3.org/1999/xlink" width="314" height="314" version="1.1" viewBox="0 0 314 314"><title>Gly-15</title><g id="BitcoinComputer-Landingpage" fill="none" fill-rule="evenodd" stroke="none" stroke-width="1"><g id="Network–BlueAndOrange-ColorsSlightlyChanged" transform="translate(-1588.000000, -4710.000000)"><g id="PRICING" transform="translate(0.000000, 3767.500000)"><g id="Graph-3" transform="translate(1431.000000, 785.500000)"><g id="Gly-15" transform="translate(157.000000, 157.000000)"><polygon id="Fill-1" points="0 314 314 314 314 0 0 0"/><g id="Group-26" transform="translate(31.160104, 32.057390)"><path id="Fill-2" fill="#FFF" d="M125.6,251.2 C56.233632,251.2 0,194.966368 0,125.6 C0,56.233632 56.233632,0 125.6,0 C194.966368,0 251.2,56.233632 251.2,125.6 C251.2,194.966368 194.966368,251.2 125.6,251.2 Z"/><polygon id="Fill-4" fill="#0046FF" points="106.995 161.136 106.995 90.064 98.111 81.18 27.038 81.18 18.154 90.064 18.154 161.136 27.038 170.02 98.111 170.02"/><polygon id="Fill-6" fill="#0046FF" points="233.046 161.136 233.046 90.064 224.162 81.18 153.089 81.18 144.205 90.064 144.205 161.136 153.089 170.02 224.162 170.02"/><path id="Fill-8" fill="#000F38" d="M93.9844704,125.6 C93.9844704,142.946616 79.9222944,157.010048 62.5744224,157.010048 C45.2278064,157.010048 31.1643744,142.946616 31.1643744,125.6 C31.1643744,108.253384 45.2278064,94.189952 62.5744224,94.189952 C79.9222944,94.189952 93.9844704,108.253384 93.9844704,125.6"/><polygon id="Fill-10" fill="#000F38" points="193.067 165.578 228.603 130.042 228.603 121.158 193.067 85.622 184.184 85.621 148.648 121.158 148.648 130.042 184.184 165.578"/><path id="Fill-25" fill="#FFF" d="M73.7179056,125.6 C73.7179056,131.7544 68.7290736,136.743232 62.5746736,136.743232 C56.4202736,136.743232 51.4314416,131.7544 51.4314416,125.6 C51.4314416,119.4456 56.4202736,114.456768 62.5746736,114.456768 C68.7290736,114.456768 73.7179056,119.4456 73.7179056,125.6"/></g></g></g></g></g></g></svg>