<svg xmlns="http://www.w3.org/2000/svg" xmlns:xlink="http://www.w3.org/1999/xlink" width="628" height="628" version="1.1" viewBox="0 0 628 628"><title>Gly-turningCompl</title><g id="BitcoinComputer-Landingpage" fill="none" fill-rule="evenodd" stroke="none" stroke-width="1"><g id="Network–BlueAndOrange-ColorsSlightlyChanged" transform="translate(-1275.000000, -315.000000)"><g id="Gly-turningCompl" transform="translate(1275.000000, 315.583709)"><polygon id="Fill-1" points="0 627.166 628 627.166 628 0 0 0"/><g id="Group-66" transform="translate(61.000000, 65.017246)"><path id="Fill-2" fill="#4B7CFF" d="M503,251.566729 C503,390.502001 390.39842,503.133457 251.5,503.133457 C112.60158,503.133457 0,390.502001 0,251.566729 C0,112.631456 112.60158,0 251.5,0 C390.39842,0 503,112.631456 503,251.566729"/><path id="Stroke-4" stroke="#0046FF" stroke-width=".141" d="M503,251.566729 C503,390.502001 390.39842,503.133457 251.5,503.133457 C112.60158,503.133457 0,390.502001 0,251.566729 C0,112.631456 112.60158,0 251.5,0 C390.39842,0 503,112.631456 503,251.566729 Z"/><polygon id="Fill-6" fill="#0046FF" points="477.833 226.412 276.648 25.174 226.353 25.174 25.166 226.412 25.166 276.72 226.351 477.961 276.648 477.961 477.833 276.72"/><polygon id="Stroke-8" stroke="#00F" stroke-width=".141" points="477.833 226.412 276.648 25.174 226.353 25.174 25.166 226.412 25.166 276.72 226.351 477.961 276.648 477.961 477.833 276.72"/><path id="Fill-10" fill="#002A99" d="M377.701191,251.566729 C377.701191,321.283416 321.199201,377.800397 251.501006,377.800397 C181.800296,377.800397 125.298306,321.283416 125.298306,251.566729 C125.298306,181.850041 181.800296,125.33306 251.501006,125.33306 C321.199201,125.33306 377.701191,181.850041 377.701191,251.566729"/><polygon id="Fill-14" fill="#FFF" points="264.121 365.187 365.091 264.191 365.091 238.944 264.121 137.947 238.878 137.947 137.909 238.941 137.909 264.191 238.878 365.187"/><path id="Fill-18" fill="#A7BFFF" d="M162.307286,251.567483 C162.307286,226.929038 182.273871,206.957155 206.903266,206.957155 C231.532661,206.957155 251.499246,226.929038 251.499246,251.567483 C251.499246,276.203413 231.532661,296.175296 206.903266,296.175296 C182.273871,296.175296 162.307286,276.203413 162.307286,251.567483 Z"/><polygon id="Fill-22" fill="#FFCF00" points="271.317 282.92 321.488 282.927 327.76 276.657 327.754 226.484 321.48 220.212 271.309 220.206 265.039 226.476 265.046 276.649" transform="translate(296.399596, 251.566421) rotate(-315.000000) translate(-296.399596, -251.566421)"/><path id="Fill-26" fill="orange" d="M296.398534,273.833654 C284.105214,273.833654 274.138269,263.864065 274.138269,251.567483 C274.138269,239.268386 284.105214,229.298796 296.398534,229.298796 C308.691854,229.298796 318.658799,239.268386 318.658799,251.567483 C318.658799,263.864065 308.691854,273.833654 296.398534,273.833654"/><polygon id="Fill-34" fill="#FF4B00" points="297.519 261.653 306.482 252.687 306.482 250.445 297.519 241.48 295.278 241.48 286.315 250.445 286.315 252.687 295.278 261.653"/><path id="Fill-38" fill="#0046FF" d="M206.903266,282.877981 C189.615156,282.877981 175.601575,268.860683 175.601575,251.567986 C175.601575,234.275289 189.615156,220.255476 206.903266,220.255476 C224.191376,220.255476 238.204956,234.275289 238.204956,251.567986 C238.204956,268.860683 224.191376,282.877981 206.903266,282.877981"/><polygon id="Fill-42" fill="#002A99" points="209.112 271.45 226.78 253.777 226.78 249.357 209.112 231.684 204.696 231.684 187.025 249.357 187.025 253.777 204.696 271.45"/><path id="Fill-46" fill="#FF4B00" d="M209.217066,251.563961 C209.217066,248.44705 211.742126,245.918804 214.858211,245.918804 C217.974296,245.918804 220.499356,248.44705 220.499356,251.563961 C220.499356,254.680873 217.974296,257.206603 214.858211,257.206603 C211.742126,257.206603 209.217066,254.680873 209.217066,251.563961 Z"/><path id="Fill-54" fill="#000F38" d="M198.955614,255.550539 C196.754989,255.550539 194.969339,253.764416 194.969339,251.563207 C194.969339,249.361998 196.754989,247.575874 198.955614,247.575874 C201.156239,247.575874 202.941889,249.361998 202.941889,251.563207 C202.941889,253.764416 201.156239,255.550539 198.955614,255.550539"/></g></g></g></g></svg>