<svg xmlns="http://www.w3.org/2000/svg" xmlns:xlink="http://www.w3.org/1999/xlink" width="157" height="158" version="1.1" viewBox="0 0 157 158"><title>Gly-11</title><g id="BitcoinComputer-Landingpage" fill="none" fill-rule="evenodd" stroke="none" stroke-width="1"><g id="Network–BlueAndOrange-ColorsSlightlyChanged" transform="translate(-1118.000000, -3139.000000)"><g id="Graph-2" transform="translate(960.000000, 2669.000000)"><g id="Gly-11" transform="translate(158.000000, 470.830159)"><polygon id="Fill-1" points="0 157 157 157 157 0 0 0"/><g id="Group-18" transform="translate(15.580052, 16.028695)"><path id="Fill-2" fill="#0046FF" d="M125.6,62.8 C125.6,97.483184 97.483184,125.6 62.8,125.6 C28.116816,125.6 0,97.483184 0,62.8 C0,28.116816 28.116816,0 62.8,0 C97.483184,0 125.6,28.116816 125.6,62.8"/><path id="Stroke-4" stroke="#00F" stroke-width=".141" d="M125.6,62.8 C125.6,97.483184 97.483184,125.6 62.8,125.6 C28.116816,125.6 0,97.483184 0,62.8 C0,28.116816 28.116816,0 62.8,0 C97.483184,0 125.6,28.116816 125.6,62.8 Z"/><polygon id="Fill-14" fill="#002A99" points="42.785 79.136 82.679 79.136 84.998 75.12 65.05 40.57 60.413 40.57 40.466 75.12"/></g></g></g></g></g></svg>