<svg xmlns="http://www.w3.org/2000/svg" xmlns:xlink="http://www.w3.org/1999/xlink" width="158" height="158" version="1.1" viewBox="0 0 158 158"><title>Gly-4</title><g id="BitcoinComputer-Landingpage" fill="none" fill-rule="evenodd" stroke="none" stroke-width="1"><g id="Network–BlueAndOrange-ColorsSlightlyChanged" transform="translate(-1430.000000, -1412.000000)"><g id="Gly-4" transform="translate(1430.500000, 1412.374635)"><polygon id="Fill-1" points="0 157.042 157 157.042 157 0 0 0"/><g id="Group-18" transform="translate(15.580052, 16.032948)"><path id="Fill-2" fill="#0046FF" d="M125.6,62.8166622 C125.6,97.5090485 97.483184,125.633324 62.8,125.633324 C28.116816,125.633324 0,97.5090485 0,62.8166622 C0,28.124276 28.116816,0 62.8,0 C97.483184,0 125.6,28.124276 125.6,62.8166622"/><path id="Stroke-4" stroke="#00F" stroke-width=".141" d="M125.6,62.8166622 C125.6,97.5090485 97.483184,125.633324 62.8,125.633324 C28.116816,125.633324 0,97.5090485 0,62.8166622 C0,28.124276 28.116816,0 62.8,0 C97.483184,0 125.6,28.124276 125.6,62.8166622 Z"/><polygon id="Fill-14" fill="#002A99" points="42.785 79.157 82.679 79.157 84.998 75.14 65.05 40.581 60.413 40.581 40.466 75.14"/></g></g></g></g></svg>