<svg xmlns="http://www.w3.org/2000/svg" xmlns:xlink="http://www.w3.org/1999/xlink" width="158" height="158" version="1.1" viewBox="0 0 158 158"><title>Gly-5</title><g id="BitcoinComputer-Landingpage" fill="none" fill-rule="evenodd" stroke="none" stroke-width="1"><g id="Network–BlueAndOrange-ColorsSlightlyChanged" transform="translate(-1588.000000, -1570.000000)"><g id="Gly-5" transform="translate(1667.000000, 1648.937384) rotate(-180.000000) translate(-1667.000000, -1648.937384) translate(1588.500000, 1570.416556)"><polygon id="Fill-1" points="0 157.042 157 157.042 157 0 0 0"/><g id="Group-12" transform="translate(15.580052, 16.032948)"><path id="Fill-2" fill="#002A99" d="M62.8,125.633324 C28.116816,125.633324 0,97.5090485 0,62.8166622 C0,28.124276 28.116816,0 62.8,0 C97.483184,0 125.6,28.124276 125.6,62.8166622 C125.6,97.5090485 97.483184,125.633324 62.8,125.633324 Z"/><polygon id="Fill-4" fill="#FFF" points="53.497 80.589 53.497 45.044 49.056 40.601 13.519 40.601 9.077 45.044 9.077 80.589 13.519 85.032 49.056 85.032"/><polygon id="Fill-6" fill="#FFF" points="116.523 80.589 116.523 45.044 112.081 40.601 76.544 40.601 72.102 45.044 72.102 80.589 76.544 85.032 112.081 85.032"/><path id="Fill-8" fill="orange" d="M46.9922352,62.8166622 C46.9922352,71.4922715 39.9611472,78.5258531 31.2872112,78.5258531 C22.6139032,78.5258531 15.5821872,71.4922715 15.5821872,62.8166622 C15.5821872,54.141053 22.6139032,47.1074714 31.2872112,47.1074714 C39.9611472,47.1074714 46.9922352,54.141053 46.9922352,62.8166622"/><polygon id="Fill-10" fill="#FF4B00" points="96.534 82.811 114.302 65.038 114.302 60.595 96.534 42.823 92.092 42.822 74.324 60.595 74.324 65.038 92.092 82.811"/></g></g></g></g></svg>