<svg xmlns="http://www.w3.org/2000/svg" xmlns:xlink="http://www.w3.org/1999/xlink" width="157" height="158" version="1.1" viewBox="0 0 157 158"><title>Gly-10</title><g id="BitcoinComputer-Landingpage" fill="none" fill-rule="evenodd" stroke="none" stroke-width="1"><g id="Network–BlueAndOrange-ColorsSlightlyChanged" transform="translate(-1118.000000, -2982.000000)"><g id="Graph-2" transform="translate(960.000000, 2669.000000)"><g id="Gly-10" transform="translate(158.000000, 313.915079)"><polygon id="Fill-1" points="0 157 157 157 157 0 0 0"/><g id="Group-12" transform="translate(15.580052, 16.028695)"><path id="Fill-2" fill="#A7BFFF" d="M62.8,125.6 C28.116816,125.6 0,97.483184 0,62.8 C0,28.116816 28.116816,0 62.8,0 C97.483184,0 125.6,28.116816 125.6,62.8 C125.6,97.483184 97.483184,125.6 62.8,125.6 Z"/><polygon id="Fill-4" fill="#0046FF" points="53.497 80.568 53.497 45.032 49.056 40.59 13.519 40.59 9.077 45.032 9.077 80.568 13.519 85.01 49.056 85.01"/><polygon id="Fill-6" fill="#0046FF" points="116.523 80.568 116.523 45.032 112.081 40.59 76.544 40.59 72.102 45.032 72.102 80.568 76.544 85.01 112.081 85.01"/><path id="Fill-8" fill="#002A99" d="M46.9922352,62.8 C46.9922352,71.473308 39.9611472,78.505024 31.2872112,78.505024 C22.6139032,78.505024 15.5821872,71.473308 15.5821872,62.8 C15.5821872,54.126692 22.6139032,47.094976 31.2872112,47.094976 C39.9611472,47.094976 46.9922352,54.126692 46.9922352,62.8"/><polygon id="Fill-10" fill="#002A99" points="96.534 82.789 114.302 65.021 114.302 60.579 96.534 42.811 92.092 42.811 74.324 60.579 74.324 65.021 92.092 82.789"/></g></g></g></g></g></svg>