<svg xmlns="http://www.w3.org/2000/svg" xmlns:xlink="http://www.w3.org/1999/xlink" width="157" height="157" version="1.1" viewBox="0 0 157 157"><title>Gly-12</title><g id="BitcoinComputer-Landingpage" fill="none" fill-rule="evenodd" stroke="none" stroke-width="1"><g id="Network–BlueAndOrange-ColorsSlightlyChanged" transform="translate(-1117.000000, -3297.000000)"><g id="Graph-2" transform="translate(960.000000, 2669.000000)"><g id="Gly-12" transform="translate(157.000000, 628.000000)"><rect id="Rectangle" width="157" height="157" x="0" y="0"/><path id="Fill-2" fill="#002A99" d="M78.380052,141.628695 C43.696868,141.628695 15.580052,113.511879 15.580052,78.8286952 C15.580052,44.1455112 43.696868,16.0286952 78.380052,16.0286952 C113.063236,16.0286952 141.180052,44.1455112 141.180052,78.8286952 C141.180052,113.511879 113.063236,141.628695 78.380052,141.628695 Z"/><polygon id="Fill-4" fill="#0046FF" points="69.077 96.597 69.077 61.061 64.636 56.619 29.099 56.619 24.657 61.061 24.657 96.597 29.099 101.039 64.636 101.039"/><polygon id="Fill-6" fill="#FFF" points="132.103 96.597 132.103 61.061 127.661 56.619 92.124 56.619 87.682 61.061 87.682 96.597 92.124 101.039 127.661 101.039"/><path id="Fill-8" fill="#A7BFFF" d="M62.5722872,78.8286952 C62.5722872,87.5020032 55.5411992,94.5337192 46.8672632,94.5337192 C38.1939552,94.5337192 31.1622392,87.5020032 31.1622392,78.8286952 C31.1622392,70.1553872 38.1939552,63.1236712 46.8672632,63.1236712 C55.5411992,63.1236712 62.5722872,70.1553872 62.5722872,78.8286952"/><polygon id="Fill-10" fill="#FF4B00" points="112.114 98.818 129.882 81.05 129.882 76.608 112.114 58.84 107.672 58.839 89.904 76.608 89.904 81.05 107.672 98.818"/><path id="Fill-25" fill="#FFF" d="M52.4390048,78.8286952 C52.4390048,81.9058952 49.9445888,84.4003112 46.8673888,84.4003112 C43.7901888,84.4003112 41.2957728,81.9058952 41.2957728,78.8286952 C41.2957728,75.7514952 43.7901888,73.2570792 46.8673888,73.2570792 C49.9445888,73.2570792 52.4390048,75.7514952 52.4390048,78.8286952"/></g></g></g></g></svg>