<svg xmlns="http://www.w3.org/2000/svg" xmlns:xlink="http://www.w3.org/1999/xlink" width="1119" height="944" version="1.1" viewBox="0 0 1119 944"><title>Wire-1</title><g id="BitcoinComputer-Landingpage" fill="none" fill-rule="evenodd" stroke="none" stroke-width="1"><g id="Network–BlueAndOrange-ColorsSlightlyChanged" transform="translate(0.000000, -314.000000)"><g id="Wire-1" transform="translate(0.000000, 315.083577)"><polyline id="Path-11" stroke="#A7BFFF" points="0 0 9.933 0 17.933 8.002 17.933 305.081 25.974 313.083 324.5 313.083 332.5 321.085 332.5 933.998 340.5 942 1110.5 942 1118.5 933.748 1118.5 856.594"/><path id="Fill-8" fill="#0046FF" d="M21.5,50.5133988 C21.5,52.4468331 19.9330614,54.0143274 18,54.0143274 C16.0670785,54.0143274 14.5,52.4468331 14.5,50.5133988 C14.5,48.5799645 16.0670785,47.0124702 18,47.0124702 C19.9330614,47.0124702 21.5,48.5799645 21.5,50.5133988"/><polygon id="Fill-10" fill="#0046FF" points="332.389 876.233 335.5 873.121 335.5 872.343 332.389 869.231 331.611 869.231 328.5 872.343 328.5 873.121 331.611 876.233" transform="translate(332.000000, 872.731549) scale(1, -1) translate(-332.000000, -872.731549)"/></g></g></g></svg>